<svg width="763" height="735" viewBox="0 0 763 735" fill="none" xmlns="http://www.w3.org/2000/svg">
<g opacity="0.5">
<path opacity="0.4" d="M88.4487 94.9991L232.097 11.9696L649.286 733.341L458.099 734.17L88.4487 94.9991Z" fill="#00A5E5"/>
<path opacity="0.6" d="M0 35.5363L40.7725 11.9696L458.441 734.17L266.774 734.17L0.0753336 273.015L0 35.5363Z" fill="#00ADEE"/>
<path opacity="0.6" d="M0 272.599L0.000152868 0L34.0157 0.000255909L425.482 676.894L324.954 735L267.419 735L0 272.599Z" fill="#01A0E1"/>
<path opacity="0.6" d="M33.8613 0.136108L225.528 0.136503L360.77 233.985L217.121 317.015L33.8613 0.136108Z" fill="#019DDE"/>
<path opacity="0.6" d="M762.997 1.79492L763 1.79494L0 442.19L0.000308431 250.644L431.141 1.79497L762.997 1.79492Z" fill="#07A4E3"/>
</g>
</svg>
